<?xml version="1.0" encoding="utf-8"?>
<svg xmlns="http://www.w3.org/2000/svg" viewBox="0 0 500 500" width="500px" height="500px"
    xmlns:bx="https://boxy-svg.com">
    <g>
        <ellipse cx="250" cy="250" rx="250" ry="250" paint-order='fill' fill-rule='nonzero' fill="#e1102c" />
        <path
            d="M 173.965 94.078 C 153.706 100.713 135.991 111.136 124.766 123.022 C 116.735 131.527 112.775 137.209 107.098 148.376 C 98.797 164.7 95.315 178.621 95.315 195.484 L 95.315 205.462 L 250.156 205.462 L 404.995 205.462 L 404.373 191.032 C 402.435 146.293 375.13 111.188 329.874 95.253 C 315.93 90.344 310.905 91.21 285.332 102.918 L 273.908 108.151 L 265.129 105.109 C 253.52 101.086 246.131 101.091 234.93 105.128 L 226.205 108.272 L 212.42 101.893 C 198.735 95.564 186.791 91.086 183.95 91.222 C 183.138 91.26 178.645 92.546 173.965 94.078 M 95 220.175 L 405 220.175 L 404.351 240.264 C 403.893 254.404 402.973 263.707 401.24 271.673 C 395.677 297.229 384.424 323.226 370.592 342.47 C 362.447 353.8 348.14 368.142 340.739 372.394 L 335.735 375.269 L 335.735 390.163 C 335.735 400.445 327.396 408.78 317.109 408.78 L 297.773 408.78 C 287.487 408.78 279.148 400.445 279.148 390.163 L 279.148 383.452 L 278.862 383.154 L 221.143 383.154 L 221.143 389.723 C 221.143 390.251 221.048 390.763 220.873 391.252 C 220.309 401.027 212.2 408.78 202.28 408.78 L 182.943 408.78 C 180.262 408.78 177.715 408.214 175.412 407.195 C 175.203 407.111 175.007 407.02 174.819 406.92 C 168.603 403.904 164.317 397.534 164.317 390.163 L 164.317 375.303 L 158.919 371.907 C 138.856 359.284 116.567 327.087 105.67 294.981 C 98.65 274.302 96.402 261.892 95.657 239.7 L 95 220.175 Z M 185.513 250.82 C 172.927 250.82 162.723 260.673 162.723 272.827 C 162.723 284.981 172.927 294.834 185.513 294.834 C 198.099 294.834 208.304 284.981 208.304 272.827 C 208.304 260.673 198.099 250.82 185.513 250.82 Z M 314.764 250.82 C 302.178 250.82 291.974 260.673 291.974 272.827 C 291.974 284.981 302.178 294.834 314.764 294.834 C 327.352 294.834 337.554 284.981 337.554 272.827 C 337.554 260.673 327.352 250.82 314.764 250.82 Z"
            stroke="none" fill-rule="evenodd" fill="#FFFFFF" />
    </g>
</svg>