<svg xmlns="http://www.w3.org/2000/svg" version="1.1" xmlns:xlink="http://www.w3.org/1999/xlink" xmlns:svgjs="http://svgjs.dev/svgjs" width="1000" height="1000"><style>
    #light-icon {
      display: inline;
    }
    #dark-icon {
      display: none;
    }

    @media (prefers-color-scheme: dark) {
      #light-icon {
        display: none;
      }
      #dark-icon {
        display: inline;
      }
    }
  </style><g id="light-icon"><svg xmlns="http://www.w3.org/2000/svg" version="1.1" xmlns:xlink="http://www.w3.org/1999/xlink" xmlns:svgjs="http://svgjs.dev/svgjs" width="1000" height="1000"><g><g transform="matrix(2.0833333333333335,0,0,2.0833333333333335,-5.684341886080802e-14,33.333333333333314)"><svg xmlns="http://www.w3.org/2000/svg" version="1.1" xmlns:xlink="http://www.w3.org/1999/xlink" xmlns:svgjs="http://svgjs.dev/svgjs" width="480px" height="448.001px"><svg xmlns="http://www.w3.org/2000/svg" viewBox="10 25.9993 480 448.0013" width="480px" height="448.001px" preserveAspectRatio="none"><path d="M 425.521 61.05 L 430.432 69.993 L 434.544 61.723 C 443.168 44.362 463.552 30.186 484.544 27.018 L 490 26.203 L 482.72 30.955 C 465.152 42.475 453.279 58.748 443.936 84.218 L 441.072 92.057 L 445.84 108.937 C 453.423 135.801 457.905 165.994 457.92 190.665 L 457.936 200.043 L 417.793 199.898 C 383.839 199.818 377.439 200.057 375.935 201.577 C 373.232 204.251 373.681 209.721 376.849 212.25 C 379.328 214.25 382.704 214.427 418.863 214.427 C 449.904 214.427 458.064 214.748 457.584 215.946 C 457.28 216.762 453.361 229.658 448.912 244.586 C 444.432 259.497 434.865 290.682 427.68 313.897 C 411.215 366.907 385.104 452.185 384.88 453.659 C 384.639 455.21 392.176 457.914 419.488 465.994 C 432.624 469.881 443.375 473.321 443.375 473.643 C 443.375 473.963 418.912 474.106 388.977 473.914 L 334.576 473.593 L 331.44 469.515 C 329.728 467.243 325.489 463.467 322.032 461.113 C 310.688 453.37 309.056 453.241 246.16 453.866 C 210.559 454.25 188.319 454.954 185.648 455.77 C 179.295 457.753 169.68 464.554 166.432 469.386 L 163.552 473.643 L 108.352 473.593 L 53.134 473.53 L 82.528 464.73 C 98.671 459.865 112.192 455.61 112.543 455.226 C 113.104 454.698 75.248 328.794 55.552 265.675 C 49.039 244.761 40.447 216.025 40.447 215.115 C 40.447 214.73 58.08 214.427 79.632 214.427 C 115.664 214.427 119.056 214.25 121.553 212.25 C 124.527 209.85 125.119 204.634 122.719 201.754 C 121.44 200.235 115.28 199.947 80.656 199.947 L 40.079 199.947 L 40.784 179.755 C 41.695 153.145 46.319 126.523 54.782 99.163 L 57.04 91.818 L 53.663 82.602 C 45.438 60.122 32.511 42.458 16.688 32.073 C 12.399 29.258 9.422 26.777 10.095 26.588 C 10.736 26.346 14.671 27.051 18.832 28.123 C 40.062 33.513 59.247 49.611 65.264 66.987 L 66.736 71.242 L 72.049 61.148 C 79.423 47.114 93.759 32.586 103.967 28.794 C 113.52 25.258 128.608 25.753 138.16 29.898 C 141.665 31.435 144.48 32.986 144.448 33.403 C 144.4 33.852 140.737 35.913 136.272 38.025 C 118.113 46.682 101.007 67.593 90.559 94.058 C 86.449 104.472 80.799 127.146 79.039 140.282 C 77.664 150.617 77.439 151.209 73.856 152.953 C 65.248 157.114 67.664 168.777 77.313 169.611 C 85.392 170.267 90.417 162.362 86 155.897 C 84.735 154.091 84.609 151.435 85.344 144.489 C 88.543 115.161 99.216 86.01 113.535 67.451 C 126.753 50.378 149.937 34.922 153.584 40.809 C 154.703 42.602 339.776 42.458 344.799 40.633 C 348.224 39.402 349.44 39.673 356.353 43.354 C 371.056 51.098 386.272 68.073 396.224 87.849 C 407.392 109.929 414.543 144.267 411.376 160.345 C 410.239 166.057 413.583 169.802 419.807 169.802 C 428.384 169.802 432.4 159.482 425.808 154.315 C 424.097 152.971 422.161 151.705 421.552 151.513 C 420.912 151.29 419.281 144.618 417.952 136.667 C 411.393 97.594 398.719 69.674 379.089 50.97 C 372.144 44.378 357.887 34.795 354.992 34.795 C 354.368 34.795 353.872 34.347 353.872 33.788 C 353.872 31.978 365.375 27.354 372.112 26.442 C 393.648 23.545 411.073 34.843 425.521 61.05 Z M 140.863 127.097 C 140.863 128.427 150.208 140.762 155.183 145.962 L 159.473 150.458 L 156.319 156.235 C 150.913 166.17 148.959 175.067 149.664 186.617 C 150.624 202.857 157.583 216.555 169.376 225.417 C 184.849 237.066 207.503 238.268 222.064 228.202 C 227.183 224.699 234.047 215.306 234.047 211.882 C 234.047 210.137 194.528 173.418 169.264 151.722 C 165.793 148.746 158 141.771 151.903 136.234 C 145.856 130.682 140.863 126.586 140.863 127.097 Z M 349.617 132.763 C 345.633 136.234 333.919 146.651 323.615 155.961 C 313.279 165.291 296.689 180.267 286.688 189.308 C 276.704 198.33 267.345 207.002 265.856 208.602 L 263.168 211.497 L 265.68 216.602 C 268.976 223.275 276.384 229.465 284.783 232.617 C 290.336 234.714 293.456 235.067 302.433 234.666 C 311.648 234.25 314.449 233.577 320.576 230.425 C 345.887 217.465 355.584 186.442 342.879 158.97 L 339.023 150.634 L 344.432 144.267 C 349.473 138.299 358.065 126.362 357.248 126.458 C 357.04 126.491 353.615 129.322 349.617 132.763 Z M 81.584 244.571 C 78.383 247.755 78.399 254.329 81.6 257.226 C 87.071 262.186 96.113 258.444 96.113 251.21 C 96.113 243.626 86.816 239.37 81.584 244.571 Z M 403.519 244.794 C 398.544 250.09 401.632 258.315 409.119 259.755 C 412.256 260.364 413.583 259.915 416.096 257.418 C 419.855 253.675 420.064 249.561 416.704 245.305 C 413.424 241.226 407.104 240.954 403.519 244.794 Z M 143.295 261.804 C 143.295 263.897 152.415 280.65 157.264 287.449 C 182.623 323.115 234.512 339.273 282.433 326.475 C 303.536 320.827 325.552 306.924 338.32 291.13 C 343.535 284.634 355.744 262.923 354.705 261.897 C 354.448 261.642 348.304 267.385 341.041 274.682 L 327.84 287.914 L 317.552 280.17 C 311.904 275.899 306.913 272.81 306.512 273.274 C 306.095 273.738 305.087 281.689 304.272 290.986 C 303.488 300.266 302.624 308.027 302.449 308.266 C 302.224 308.458 299.952 307.338 297.392 305.737 C 287.199 299.338 288.033 299.178 284.272 308.507 C 282.383 313.147 280.496 316.922 280.08 316.922 C 279.647 316.922 276.432 313.147 272.912 308.523 C 269.392 303.93 265.824 299.579 264.976 298.873 C 263.824 297.913 261.743 300.122 256.4 307.884 C 252.529 313.515 249.232 318.107 249.072 318.107 C 248.896 318.107 245.76 313.819 242.063 308.554 C 238.367 303.306 234.832 298.698 234.176 298.298 C 233.52 297.882 229.888 301.914 226.064 307.242 C 222.24 312.57 218.736 316.922 218.289 316.922 C 217.84 316.922 215.792 313.114 213.743 308.458 L 209.983 300.025 L 203.056 304.17 C 199.249 306.458 195.744 308.121 195.28 307.85 C 194.848 307.547 194.079 300.154 193.599 291.354 C 193.119 282.553 192.352 274.714 191.904 273.93 C 191.344 272.937 187.873 274.764 181.103 279.626 C 175.6 283.53 170.704 286.778 170.224 286.778 C 169.744 286.778 163.487 280.938 156.319 273.835 C 149.169 266.73 143.295 261.307 143.295 261.804 Z M 140.064 423.61 C 130.48 427.61 134.913 442.537 145.103 440.57 C 154.448 438.795 155.936 426.33 147.167 423.259 C 144.703 422.424 142.703 422.522 140.064 423.61 Z M 349.408 423.034 C 343.648 425.321 342.448 433.45 347.168 438.123 C 348.784 439.77 351.519 441.081 353.265 441.081 C 357.297 441.081 362.336 436.073 362.336 432.01 C 362.336 428.617 356.401 421.738 353.649 421.865 C 352.768 421.914 350.865 422.441 349.408 423.034 Z" stroke="none" fill-rule="evenodd" style="" id="object-0" transform="matrix(0.9999999999999999, 0, 0, 0.9999999999999999, 0, 0)"></path></svg></svg></g></g></svg></g><g id="dark-icon"><svg xmlns="http://www.w3.org/2000/svg" version="1.1" xmlns:xlink="http://www.w3.org/1999/xlink" xmlns:svgjs="http://svgjs.dev/svgjs" width="1000" height="1000"><g clip-path="url(#SvgjsClipPath1047)"><rect width="1000" height="1000" fill="#ffffff"></rect><g transform="matrix(1.4583333333333333,0,0,1.4583333333333333,150,173.33333333333337)"><svg xmlns="http://www.w3.org/2000/svg" version="1.1" xmlns:xlink="http://www.w3.org/1999/xlink" xmlns:svgjs="http://svgjs.dev/svgjs" width="480px" height="448.001px"><svg xmlns="http://www.w3.org/2000/svg" viewBox="10 25.9993 480 448.0013" width="480px" height="448.001px" preserveAspectRatio="none"><path d="M 425.521 61.05 L 430.432 69.993 L 434.544 61.723 C 443.168 44.362 463.552 30.186 484.544 27.018 L 490 26.203 L 482.72 30.955 C 465.152 42.475 453.279 58.748 443.936 84.218 L 441.072 92.057 L 445.84 108.937 C 453.423 135.801 457.905 165.994 457.92 190.665 L 457.936 200.043 L 417.793 199.898 C 383.839 199.818 377.439 200.057 375.935 201.577 C 373.232 204.251 373.681 209.721 376.849 212.25 C 379.328 214.25 382.704 214.427 418.863 214.427 C 449.904 214.427 458.064 214.748 457.584 215.946 C 457.28 216.762 453.361 229.658 448.912 244.586 C 444.432 259.497 434.865 290.682 427.68 313.897 C 411.215 366.907 385.104 452.185 384.88 453.659 C 384.639 455.21 392.176 457.914 419.488 465.994 C 432.624 469.881 443.375 473.321 443.375 473.643 C 443.375 473.963 418.912 474.106 388.977 473.914 L 334.576 473.593 L 331.44 469.515 C 329.728 467.243 325.489 463.467 322.032 461.113 C 310.688 453.37 309.056 453.241 246.16 453.866 C 210.559 454.25 188.319 454.954 185.648 455.77 C 179.295 457.753 169.68 464.554 166.432 469.386 L 163.552 473.643 L 108.352 473.593 L 53.134 473.53 L 82.528 464.73 C 98.671 459.865 112.192 455.61 112.543 455.226 C 113.104 454.698 75.248 328.794 55.552 265.675 C 49.039 244.761 40.447 216.025 40.447 215.115 C 40.447 214.73 58.08 214.427 79.632 214.427 C 115.664 214.427 119.056 214.25 121.553 212.25 C 124.527 209.85 125.119 204.634 122.719 201.754 C 121.44 200.235 115.28 199.947 80.656 199.947 L 40.079 199.947 L 40.784 179.755 C 41.695 153.145 46.319 126.523 54.782 99.163 L 57.04 91.818 L 53.663 82.602 C 45.438 60.122 32.511 42.458 16.688 32.073 C 12.399 29.258 9.422 26.777 10.095 26.588 C 10.736 26.346 14.671 27.051 18.832 28.123 C 40.062 33.513 59.247 49.611 65.264 66.987 L 66.736 71.242 L 72.049 61.148 C 79.423 47.114 93.759 32.586 103.967 28.794 C 113.52 25.258 128.608 25.753 138.16 29.898 C 141.665 31.435 144.48 32.986 144.448 33.403 C 144.4 33.852 140.737 35.913 136.272 38.025 C 118.113 46.682 101.007 67.593 90.559 94.058 C 86.449 104.472 80.799 127.146 79.039 140.282 C 77.664 150.617 77.439 151.209 73.856 152.953 C 65.248 157.114 67.664 168.777 77.313 169.611 C 85.392 170.267 90.417 162.362 86 155.897 C 84.735 154.091 84.609 151.435 85.344 144.489 C 88.543 115.161 99.216 86.01 113.535 67.451 C 126.753 50.378 149.937 34.922 153.584 40.809 C 154.703 42.602 339.776 42.458 344.799 40.633 C 348.224 39.402 349.44 39.673 356.353 43.354 C 371.056 51.098 386.272 68.073 396.224 87.849 C 407.392 109.929 414.543 144.267 411.376 160.345 C 410.239 166.057 413.583 169.802 419.807 169.802 C 428.384 169.802 432.4 159.482 425.808 154.315 C 424.097 152.971 422.161 151.705 421.552 151.513 C 420.912 151.29 419.281 144.618 417.952 136.667 C 411.393 97.594 398.719 69.674 379.089 50.97 C 372.144 44.378 357.887 34.795 354.992 34.795 C 354.368 34.795 353.872 34.347 353.872 33.788 C 353.872 31.978 365.375 27.354 372.112 26.442 C 393.648 23.545 411.073 34.843 425.521 61.05 Z M 140.863 127.097 C 140.863 128.427 150.208 140.762 155.183 145.962 L 159.473 150.458 L 156.319 156.235 C 150.913 166.17 148.959 175.067 149.664 186.617 C 150.624 202.857 157.583 216.555 169.376 225.417 C 184.849 237.066 207.503 238.268 222.064 228.202 C 227.183 224.699 234.047 215.306 234.047 211.882 C 234.047 210.137 194.528 173.418 169.264 151.722 C 165.793 148.746 158 141.771 151.903 136.234 C 145.856 130.682 140.863 126.586 140.863 127.097 Z M 349.617 132.763 C 345.633 136.234 333.919 146.651 323.615 155.961 C 313.279 165.291 296.689 180.267 286.688 189.308 C 276.704 198.33 267.345 207.002 265.856 208.602 L 263.168 211.497 L 265.68 216.602 C 268.976 223.275 276.384 229.465 284.783 232.617 C 290.336 234.714 293.456 235.067 302.433 234.666 C 311.648 234.25 314.449 233.577 320.576 230.425 C 345.887 217.465 355.584 186.442 342.879 158.97 L 339.023 150.634 L 344.432 144.267 C 349.473 138.299 358.065 126.362 357.248 126.458 C 357.04 126.491 353.615 129.322 349.617 132.763 Z M 81.584 244.571 C 78.383 247.755 78.399 254.329 81.6 257.226 C 87.071 262.186 96.113 258.444 96.113 251.21 C 96.113 243.626 86.816 239.37 81.584 244.571 Z M 403.519 244.794 C 398.544 250.09 401.632 258.315 409.119 259.755 C 412.256 260.364 413.583 259.915 416.096 257.418 C 419.855 253.675 420.064 249.561 416.704 245.305 C 413.424 241.226 407.104 240.954 403.519 244.794 Z M 143.295 261.804 C 143.295 263.897 152.415 280.65 157.264 287.449 C 182.623 323.115 234.512 339.273 282.433 326.475 C 303.536 320.827 325.552 306.924 338.32 291.13 C 343.535 284.634 355.744 262.923 354.705 261.897 C 354.448 261.642 348.304 267.385 341.041 274.682 L 327.84 287.914 L 317.552 280.17 C 311.904 275.899 306.913 272.81 306.512 273.274 C 306.095 273.738 305.087 281.689 304.272 290.986 C 303.488 300.266 302.624 308.027 302.449 308.266 C 302.224 308.458 299.952 307.338 297.392 305.737 C 287.199 299.338 288.033 299.178 284.272 308.507 C 282.383 313.147 280.496 316.922 280.08 316.922 C 279.647 316.922 276.432 313.147 272.912 308.523 C 269.392 303.93 265.824 299.579 264.976 298.873 C 263.824 297.913 261.743 300.122 256.4 307.884 C 252.529 313.515 249.232 318.107 249.072 318.107 C 248.896 318.107 245.76 313.819 242.063 308.554 C 238.367 303.306 234.832 298.698 234.176 298.298 C 233.52 297.882 229.888 301.914 226.064 307.242 C 222.24 312.57 218.736 316.922 218.289 316.922 C 217.84 316.922 215.792 313.114 213.743 308.458 L 209.983 300.025 L 203.056 304.17 C 199.249 306.458 195.744 308.121 195.28 307.85 C 194.848 307.547 194.079 300.154 193.599 291.354 C 193.119 282.553 192.352 274.714 191.904 273.93 C 191.344 272.937 187.873 274.764 181.103 279.626 C 175.6 283.53 170.704 286.778 170.224 286.778 C 169.744 286.778 163.487 280.938 156.319 273.835 C 149.169 266.73 143.295 261.307 143.295 261.804 Z M 140.064 423.61 C 130.48 427.61 134.913 442.537 145.103 440.57 C 154.448 438.795 155.936 426.33 147.167 423.259 C 144.703 422.424 142.703 422.522 140.064 423.61 Z M 349.408 423.034 C 343.648 425.321 342.448 433.45 347.168 438.123 C 348.784 439.77 351.519 441.081 353.265 441.081 C 357.297 441.081 362.336 436.073 362.336 432.01 C 362.336 428.617 356.401 421.738 353.649 421.865 C 352.768 421.914 350.865 422.441 349.408 423.034 Z" stroke="none" fill-rule="evenodd" style="" id="object-0" transform="matrix(0.9999999999999999, 0, 0, 0.9999999999999999, 0, 0)"></path></svg></svg></g></g><defs><clipPath id="SvgjsClipPath1047"><rect width="1000" height="1000" x="0" y="0" rx="350" ry="350"></rect></clipPath></defs></svg></g></svg>