<svg xmlns="http://www.w3.org/2000/svg" version="1.1" xmlns:xlink="http://www.w3.org/1999/xlink"
  xmlns:svgjs="http://svgjs.dev/svgjs" width="500" height="500">
  <ellipse fill="#dfdfdf" cx="250" cy="250" rx="250" ry="250"></ellipse>
  <path
    d="M 149.439 43.781 C 122.642 52.558 99.214 66.342 84.368 82.062 C 73.746 93.311 68.509 100.824 61.001 115.593 C 50.022 137.185 45.417 155.597 45.417 177.899 L 45.417 191.096 L 250.206 191.096 L 454.994 191.096 L 454.17 172.01 C 451.609 112.84 415.495 66.41 355.64 45.335 C 337.199 38.842 330.551 39.987 296.729 55.474 L 281.62 62.394 L 270.01 58.371 C 254.655 53.051 244.883 53.058 230.068 58.395 L 218.53 62.554 L 200.297 54.118 C 182.199 45.746 166.401 39.823 162.645 40.004 C 161.569 40.055 155.627 41.755 149.439 43.781"
    stroke="none" fill="#000000" fill-rule="evenodd"></path>
  <path
    d="M 45 210.555 L 455 210.555 L 454.142 237.125 C 453.537 255.825 452.318 268.129 450.026 278.665 C 442.67 312.466 427.787 346.847 409.493 372.299 C 398.722 387.285 379.799 406.253 370.01 411.877 L 363.391 415.679 L 363.391 435.378 C 363.391 448.976 352.362 460 338.757 460 L 313.184 460 C 299.579 460 288.55 448.976 288.55 435.378 L 288.55 426.502 L 288.172 426.108 L 211.834 426.108 L 211.834 434.796 C 211.834 435.494 211.709 436.17 211.478 436.819 C 210.731 449.746 200.006 460 186.885 460 L 161.312 460 C 157.767 460 154.397 459.251 151.351 457.904 C 151.075 457.793 150.816 457.672 150.567 457.54 C 142.346 453.551 136.678 445.126 136.678 435.378 L 136.678 415.724 L 129.538 411.233 C 103.002 394.537 73.523 351.954 59.111 309.491 C 49.827 282.143 46.854 265.728 45.868 236.377 L 45 210.555 Z M 164.711 251.086 C 148.064 251.086 134.568 264.117 134.568 280.192 C 134.568 296.267 148.064 309.297 164.711 309.297 C 181.357 309.297 194.853 296.267 194.853 280.192 C 194.853 264.117 181.357 251.086 164.711 251.086 Z M 335.656 251.086 C 319.009 251.086 305.513 264.117 305.513 280.192 C 305.513 296.267 319.009 309.297 335.656 309.297 C 352.303 309.297 365.798 296.267 365.798 280.192 C 365.798 264.117 352.303 251.086 335.656 251.086 Z"
    stroke="none" fill="#000000" fill-rule="evenodd"></path>
</svg>